<svg width="40" height="40" viewBox="0 0 40 40" fill="none" xmlns="http://www.w3.org/2000/svg">
<path d="M20 0C8.95312 0 0 8.95312 0 20C0 26.6094 3.20312 32.4688 8.15625 36.1094C8.375 34.9688 8.625 34.0312 8.875 33.7344C9.45312 33.0312 10.5937 32.3906 11.8281 31.875C11.8594 31.4375 11.9219 31.2031 11.9219 31.2031L14.0156 30.4688C14.8281 30.1875 15.6562 29.9375 16.5156 29.8594C16.6562 29.8438 16.6406 29.7812 16.1094 29.5781C14.9062 29.125 11.9219 30.2656 11.9219 30.2656C11.9219 30.2656 12.6875 28.5 14.4688 27.5156C15.4375 26.9844 16.7344 26.7031 16.7344 26.7031L16.8906 26.8281C15.5 25.6562 14.3594 23.7812 13.7031 21.7656C13.6406 21.7812 13.5781 21.7812 13.5156 21.7812C12.6094 21.7812 11.9219 20.0625 11.9219 18.6562C11.9219 17.5312 12.375 16.9688 13.0312 16.7969C13.0156 16.7812 12.9844 16.7656 12.9531 16.75C12.5 16.5156 10.7656 15.625 11 12.9688C11.1094 13.2812 11.3594 13.5469 11.6406 13.7188C11.6094 13.3594 11.125 12.1094 11.375 10.2812C11.625 8.53125 12 8.5 12.4375 7.75C12.4375 8.04688 12.5781 8.34375 12.8125 8.54688C12.8906 7.48438 13.8125 5.82812 15.0156 5.48438C14.8906 5.96875 15.2031 6.23438 15.3125 6.375C15.6562 5.57812 16.2188 5.17188 16.5156 4.9375C17.25 4.375 17.2344 3.57812 16.875 3.34375C17.4062 3.29688 18.4062 3.53125 18.8438 4.125C19 3.35938 18.5938 2.3125 18.25 2C19.5312 2.0625 21.7344 3.98437 22.3281 5.125C22.2031 4.64062 22.1875 4 21.3906 2.85938C22.8281 3.57812 24.8438 4.8125 26.4844 6.98438C26.3906 6.625 26.8594 6.375 26.7031 5.85938C27.3125 6.375 27.8125 7.71875 28.125 8.73438C28.1719 8.42188 28.1719 8.10938 28.0938 7.8125C28.6094 8.1875 29.0156 8.85938 29.1875 10.25C29.3438 11.5156 28.9219 12.7031 28.7344 13.2031C28.875 12.9531 29.125 12.9687 29.2188 12.375C29.7656 15.1406 27.9688 16.9062 27.1406 16.8594H27.125C27.7031 17.0625 28.1094 17.625 28.1094 18.6875C28.1094 20.0781 27.4219 21.8125 26.5156 21.8125C26.4531 21.8125 26.3906 21.8125 26.3281 21.7969C25.6562 23.8281 24.5156 25.7031 23.0938 26.8906L23.2812 26.7344C23.2812 26.7344 24.5781 27.0156 25.5469 27.5469C27.3281 28.5156 28.0938 30.2969 28.0938 30.2969C28.0938 30.2969 25.0938 29.1562 23.9062 29.6094C23.3906 29.8125 23.3594 29.875 23.5 29.8906C24.1406 29.9531 24.7656 30.0625 25.375 30.2812L28.0938 31.25C28.0938 31.25 28.1562 31.4531 28.1719 31.8438C29.4219 32.3594 30.5625 32.9688 31.125 33.6875C31.375 33.9844 31.625 34.9688 31.8594 36.1562C36.7969 32.4688 40 26.6094 40 20C40 8.95312 31.0469 0 20 0Z" fill="#31B1E7"/>
<path d="M17.0002 29.5469C17.5315 30.7344 20.6565 30.9375 22.2033 30.2187C20.1721 29.7031 18.3596 28.5938 16.969 27.1094C16.9533 27.4219 16.9065 28.2344 17.0002 29.5469Z" fill="#F9DFA9"/>
<path d="M16.9844 26.9219C16.9844 26.9219 16.9844 26.9844 16.9688 27.0937C18.3594 28.5781 20.1719 29.6875 22.2031 30.2031C22.5781 30.0312 22.8594 29.7969 22.9844 29.5156C23.1094 27.7656 23 26.9062 23 26.9062L23.0625 26.8438C22.1406 27.6094 21.0938 28.0781 19.9844 28.0781C18.9219 28.1094 17.9062 27.6562 16.9844 26.9219Z" fill="#EACE95"/>
<path d="M23.0781 26.8594C24.4844 25.6875 25.6406 23.7969 26.3125 21.7656C25.6406 23.7969 24.4844 25.6875 23.0781 26.8594Z" fill="#FFE8B9"/>
<path d="M16.9219 26.7969H20V12.1562C19.9844 12.1719 19.9531 12.1875 19.9375 12.2031C19.75 11.8594 19.375 11.6406 19 11.5625C18.6094 11.4844 18.2188 11.5469 17.8281 11.6406C16.75 11.9375 15.7656 12.5937 15.0938 13.4844C14.4219 14.375 13.9063 15.4062 14 16.5312C14.0156 16.6562 14.0156 16.7812 14.0313 16.9062C14.3594 17.0781 14.6563 17.4062 14.8438 17.8437C15.0156 17.2344 15.4375 16.7656 16.0781 16.7656H18.9219C19.3125 16.7656 19.5 17.25 19.5 17.5C19.5 17.5 19.6406 20.4062 17.4688 20.4062H16.4531C15.8281 20.4062 15.3906 20.125 15.1094 19.7344C15.0313 20.4062 14.7813 20.9844 14.4219 21.3594C14.4375 21.5937 14.4688 21.8281 14.4844 22.0469C14.2188 22.125 13.9375 21.9844 13.7812 21.75C13.75 21.7656 13.7188 21.7656 13.6875 21.7656C14.3594 23.7812 15.4844 25.6406 16.875 26.8281L16.9219 26.8594V26.7969Z" fill="#FFE8B9"/>
<path d="M20 28.1094V26.8125H16.9219V26.875L16.9844 26.9219C17.9062 27.6563 18.9219 28.1094 20 28.1094C21.1094 28.1094 22.1562 27.6406 23.0781 26.875C22.1562 27.6406 21.1094 28.1094 20 28.1094Z" fill="#FFE8B9"/>
<path d="M23.0781 26.8594C24.4844 25.6875 25.6406 23.7969 26.3125 21.7657C26.2813 21.7657 26.25 21.75 26.2188 21.75C26.1875 21.8125 26.1719 21.875 26.1406 21.9532C26.0625 22.1407 25.8906 22.2657 25.6875 22.2969C25.4844 22.3282 25.2344 22.2188 25.1094 22.0625C25.2344 21.7657 25.3281 21.4688 25.4219 21.1563C25.1563 20.7969 24.9688 20.2969 24.8906 19.7188C24.6094 20.125 24.1719 20.3907 23.5469 20.3907H22.5312C20.3437 20.3907 20.5 17.4844 20.5 17.4844C20.5 17.2344 20.6875 16.75 21.0781 16.75H23.9219C24.5625 16.75 24.9844 17.2188 25.1563 17.8282C25.3438 17.4219 25.5938 17.1094 25.9063 16.9219C25.8906 16.7813 25.8906 16.625 25.875 16.4844C25.7813 15.5938 25.6094 14.6875 25.2188 13.875C24.8281 13.0625 24.2188 12.3282 23.4063 11.9375C22.375 11.4219 20.9531 11.4844 20 12.1407V26.7969H23.0781V26.8594Z" fill="#F9DFA9"/>
<path d="M23.0781 26.8594V26.7969H20V28.0938C21.1094 28.1094 22.1562 27.6406 23.0781 26.8594Z" fill="#F9DFA9"/>
<path d="M13.0469 16.9062V16.8906C13.0469 16.875 13.0313 16.8594 13.0313 16.8438L13.0156 16.8281C12.3594 17 11.9062 17.5625 11.9062 18.6875C11.9062 20.0781 12.5938 21.8125 13.5 21.8125C13.5625 21.8125 13.625 21.8125 13.6875 21.7969C13.2656 20.5156 13.0156 19.1719 13.0156 17.9219C13.0313 17.5625 13.0313 17.2344 13.0469 16.9062Z" fill="#FFE8B9"/>
<path d="M13.7031 21.625C13.5625 21.3281 13.5625 21 13.5625 20.6719C13.5469 19.3906 13.375 18.1094 13.0469 16.875V16.8906C13.0312 17.2187 13.0156 17.5469 13.0156 17.8906C13.0156 19.1406 13.25 20.4844 13.6875 21.7656C13.7188 21.7656 13.75 21.75 13.7812 21.75C13.7656 21.7187 13.7344 21.6719 13.7031 21.625Z" fill="#FFE8B9"/>
<path d="M15.1094 19.7187C14.7344 19.1875 14.6563 18.4375 14.8438 17.8281C14.6406 17.3906 14.3594 17.0625 14.0312 16.8906C14.1719 18.375 14.2969 19.8594 14.4375 21.3594C14.7813 20.9844 15.0312 20.4062 15.1094 19.7187Z" fill="#FFE8B9"/>
<path d="M26.7187 20.2188C26.6094 20.7344 26.4688 21.2656 26.2969 21.7656C26.3594 21.7813 26.4219 21.7813 26.4844 21.7813C27.3906 21.7813 28.0781 20.0625 28.0781 18.6563C28.0781 17.5938 27.6875 17.0469 27.0937 16.8281C27.0625 16.8281 27.0469 16.8281 27.0156 16.8125C27.1094 18.0469 27 19.1406 26.7187 20.2188Z" fill="#F9DFA9"/>
<path d="M26.7188 20.2344C26.6094 20.75 26.4688 21.2656 26.2969 21.7812C26.4844 21.2656 26.625 20.75 26.7188 20.2344Z" fill="#F9DFA9"/>
<path d="M25.8906 16.9219C25.5938 17.1094 25.3281 17.4219 25.1406 17.8281C25.3125 18.4375 25.2344 19.1875 24.875 19.7188C24.9375 20.2813 25.125 20.7812 25.4063 21.1562C25.8281 19.7969 25.9844 18.3438 25.8906 16.9219Z" fill="#F9DFA9"/>
<path d="M26.3125 21.7812C26.4844 21.2656 26.625 20.75 26.7344 20.2344C26.6094 20.7344 26.4375 21.25 26.2188 21.75C26.2344 21.7656 26.2812 21.7656 26.3125 21.7812Z" fill="#F9DFA9"/>
<path d="M15.1094 19.7187C15.3906 20.125 15.8281 20.3906 16.4531 20.3906H17.4688C19.6562 20.3906 19.5 17.4844 19.5 17.4844C19.5 17.2344 19.3125 16.75 18.9219 16.75H16.0781C15.4375 16.75 15.0156 17.2188 14.8438 17.8281C15.0312 18.2344 15.1406 18.7344 15.1406 19.2656C15.1406 19.4219 15.1406 19.5781 15.1094 19.7187Z" fill="#DB766C"/>
<path d="M15.1094 19.7188C15.125 19.5781 15.1406 19.4219 15.1406 19.2656C15.1406 18.7344 15.0312 18.2344 14.8437 17.8281C14.6719 18.4531 14.75 19.1875 15.1094 19.7188Z" fill="#DB766C"/>
<path d="M25.1561 17.8281C24.9843 17.2188 24.5624 16.75 23.9218 16.75H21.078C20.6874 16.75 20.4999 17.2344 20.4999 17.4844C20.4999 17.4844 20.3593 20.3906 22.5311 20.3906H23.5468C24.1718 20.3906 24.6093 20.1094 24.8905 19.7187C24.8749 19.5781 24.8593 19.4219 24.8593 19.2656C24.8593 18.7344 24.9686 18.2344 25.1561 17.8281Z" fill="#DB766C"/>
<path d="M25.1563 17.8281C24.9687 18.2344 24.8594 18.7344 24.8594 19.2656C24.8594 19.4219 24.875 19.5781 24.8906 19.7188C25.25 19.1875 25.3281 18.4531 25.1563 17.8281Z" fill="#DB766C"/>
<path d="M11.8281 31.875C10.5781 32.4062 9.4375 33.0312 8.875 33.7344C8.625 34.0312 8.39062 34.9688 8.15625 36.1094C10.0469 37.5 12.1719 38.5625 14.4844 39.2188C14.0937 38.6875 13.7344 38.125 13.4219 37.5469C11.9219 34.7969 11.7812 32.8281 11.8281 31.875Z" fill="#DBE0E2"/>
<path d="M28.1719 31.7969C28.1719 31.8281 28.1719 31.8437 28.1719 31.875C29.4219 32.4062 30.5469 33.0312 31.125 33.7344C31.375 34.0312 31.6094 34.9688 31.8438 36.1094L31.8594 36.0937C31.625 34.9062 31.375 33.9375 31.125 33.625C30.5469 32.9219 29.4219 32.3125 28.1719 31.7969Z" fill="#CBD0D3"/>
<path d="M28.1719 31.875C28.2188 32.8437 28.0781 34.7969 26.5781 37.5625C26.2656 38.1406 25.9062 38.7031 25.5156 39.2344C27.8281 38.5781 29.9531 37.5 31.8438 36.125C31.625 34.9844 31.375 34.0469 31.125 33.75C30.5469 33.0312 29.4219 32.3906 28.1719 31.875Z" fill="#CBD0D3"/>
<path d="M17 29.5469C17.0156 29.7813 17.0469 30.0312 17.0625 30.3125C18.4687 30.7031 18.5156 30.7031 19.9844 30.7031C21.4062 30.7031 21.5 30.7031 22.7812 30.3594C22.5781 30.3281 22.3906 30.2812 22.2031 30.2344C20.6719 30.9219 17.5469 30.7344 17 29.5469Z" fill="#49535D"/>
<path d="M22.9219 30.2969C22.9531 30.0156 22.9688 29.7656 22.9844 29.5156C22.8594 29.7969 22.5781 30.0156 22.2031 30.2031C22.3906 30.25 22.5937 30.2969 22.7812 30.3281C22.8437 30.3281 22.875 30.3125 22.9219 30.2969Z" fill="#49535D"/>
<path d="M17.7969 34.6562C17.8594 34.9063 17.9062 35.1719 17.9687 35.4219C18.3437 36.9687 19.0937 38.8594 19.5625 40C19.7031 40 19.8438 40 19.9844 40V34.6562H17.7969Z" fill="#49535D"/>
<path d="M17.0781 30.2969C17.2031 31.4531 17.4219 32.8906 17.7969 34.6406H20V30.6719C18.5312 30.6875 18.4688 30.6875 17.0781 30.2969Z" fill="#49535D"/>
<path d="M20 30.6875C21.4219 30.6875 21.6406 30.7188 22.8281 30.3438H22.7969C21.5156 30.6875 21.4219 30.6875 20 30.6875Z" fill="#49535D"/>
<path d="M22.8281 30.3438C22.8594 30.3281 22.9063 30.3281 22.9375 30.3125C22.8906 30.3281 22.8437 30.3438 22.7969 30.3438H22.8281Z" fill="#49535D"/>
<path d="M22.2031 34.6562H20V40C20.1406 40 20.2812 40 20.4219 40C20.9062 38.875 21.6562 36.9687 22.0156 35.4219C22.0937 35.1562 22.1406 34.9063 22.2031 34.6562Z" fill="#49535D"/>
<path d="M22.8281 30.3438C21.6406 30.7187 21.4375 30.6875 20 30.6875V34.6562H22.2031C22.5781 32.9375 22.7969 31.5156 22.9219 30.375C22.8906 30.3594 22.8594 30.3438 22.8281 30.3438Z" fill="#49535D"/>
<path d="M22.9219 30.3594C22.9219 30.3438 22.9219 30.3281 22.9219 30.3125C22.8906 30.3281 22.8438 30.3437 22.8125 30.3437C22.8594 30.3437 22.8906 30.3594 22.9219 30.3594Z" fill="#49535D"/>
<path d="M16.9219 27.0469V26.875L16.875 26.8438L16.7188 26.7188C16.7188 26.7188 15.4219 27 14.4531 27.5312C12.6719 28.5 11.9062 30.2812 11.9062 30.2812C11.9062 30.2812 14.9062 29.1406 16.0938 29.5937C16.6094 29.7969 16.6406 29.8594 16.5 29.875C15.6406 29.9531 14.8125 30.2031 14 30.4844L11.9062 31.2187C11.9062 31.2187 11.8437 31.4531 11.8125 31.8906C14.1719 30.8906 16.9062 30.2812 16.9062 30.2812V27.0469H16.9219Z" fill="#ECF0F1"/>
<path d="M16.9219 29.1719C16.9219 29.2969 16.9531 29.4219 17 29.5313C16.9062 28.2344 16.9375 27.4219 16.9687 27.0937C16.9531 27.0781 16.9375 27.0625 16.9219 27.0469V30.2656V29.1719Z" fill="#ECF0F1"/>
<path d="M17 26.9219C16.9688 26.9063 16.9531 26.875 16.9375 26.8594V27.0312C16.9531 27.0469 16.9687 27.0625 16.9844 27.0781C16.9844 26.9844 17 26.9219 17 26.9219Z" fill="#ECF0F1"/>
<path d="M16.9219 26.875L16.8906 26.8281L16.9219 26.875Z" fill="#ECF0F1"/>
<path d="M16.9219 26.875C16.9375 26.8906 16.9687 26.9063 16.9844 26.9219L16.9219 26.875Z" fill="#ECF0F1"/>
<path d="M16.9218 34.6563V30.2656C16.9218 30.2656 14.1875 30.875 11.8281 31.875C11.7812 32.8438 11.9218 34.7969 13.4218 37.5625C13.7343 38.1562 14.0937 38.7031 14.4843 39.2344C15.2812 39.4688 16.0937 39.6406 16.9375 39.7656L16.9218 34.6563Z" fill="#ECF0F1"/>
<path d="M16.9219 29.1719V30.2656C16.9688 30.2812 17.0156 30.2969 17.0625 30.3125C17.0312 30.0469 17.0156 29.7969 17 29.5469C16.9531 29.4219 16.9219 29.3125 16.9219 29.1719Z" fill="#ECF0F1"/>
<path d="M17.7969 34.6562H16.9219V39.7656C17.7813 39.9062 18.6719 39.9688 19.5625 40C19.0937 38.875 18.3281 36.9687 17.9687 35.4219C17.9219 35.1562 17.8594 34.9063 17.7969 34.6562Z" fill="#ECF0F1"/>
<path d="M16.9219 30.2656V34.6562H17.7969C17.4062 32.9063 17.1875 31.4531 17.0781 30.3125C17.0313 30.2813 16.9844 30.2812 16.9219 30.2656Z" fill="#ECF0F1"/>
<path d="M23.0781 29.1719V30.2656C23.0937 30.2656 25.8125 30.8438 28.1719 31.7969C28.1406 31.4062 28.0938 31.2031 28.0938 31.2031L25.375 30.2344C24.7656 30.0156 24.1406 29.9062 23.5 29.8437C23.3594 29.8281 23.375 29.7656 23.9063 29.5625C25.1094 29.1094 28.0938 30.25 28.0938 30.25C28.0938 30.25 27.3281 28.4844 25.5469 27.5C24.5781 26.9687 23.2813 26.6875 23.2813 26.6875L23.0938 26.8438L23.0781 29.1719Z" fill="#E6EAEB"/>
<path d="M23 29.5312C23.0469 29.4219 23.0781 29.3125 23.0781 29.1875V26.875L23.0156 26.9375C23.0156 26.9219 23.125 27.7812 23 29.5312Z" fill="#E6EAEB"/>
<path d="M23.0781 30.2656C23.0937 30.2656 25.8281 30.875 28.1719 31.875C28.1719 31.8438 28.1719 31.8281 28.1719 31.7969C25.8125 30.8281 23.0937 30.2656 23.0781 30.2656Z" fill="#E6EAEB"/>
<path d="M28.1719 31.875C25.8125 30.875 23.0937 30.2656 23.0781 30.2656V39.7656C23.9062 39.6406 24.7344 39.4531 25.5312 39.2344C25.9219 38.7031 26.2812 38.1406 26.5937 37.5625C28.0781 34.7969 28.2344 32.8281 28.1719 31.875Z" fill="#E6EAEB"/>
<path d="M23 29.5312C22.9844 29.7656 22.9531 30.0312 22.9375 30.3125C22.9844 30.2969 23.0312 30.2812 23.0938 30.2656V29.1875C23.0781 29.3125 23.0469 29.4219 23 29.5312Z" fill="#E6EAEB"/>
<path d="M22.9219 30.3125C22.9688 30.2969 23.0156 30.2812 23.0781 30.2656C23.0312 30.2812 22.9844 30.2813 22.9219 30.3125Z" fill="#E6EAEB"/>
<path d="M23.0781 30.2656V30.3906V34.6406H22.2031C22.1406 34.8906 22.0937 35.1563 22.0312 35.4063C21.6562 36.9531 20.9062 38.8438 20.4375 39.9844C21.3438 39.9688 22.2188 39.8906 23.0938 39.75L23.0781 30.2656Z" fill="#E6EAEB"/>
<path d="M22.2031 34.6562H23.0781V30.4063C23.0312 30.3906 22.9687 30.3906 22.9219 30.375C22.7969 31.5 22.5781 32.9375 22.2031 34.6562Z" fill="#E6EAEB"/>
<path d="M22.9219 30.3594C22.9688 30.375 23.0312 30.375 23.0781 30.3906V30.2656C23.0312 30.2812 22.9844 30.2969 22.9219 30.3125C22.9219 30.3281 22.9219 30.3438 22.9219 30.3594Z" fill="#E6EAEB"/>
<path d="M12.5312 15.0781C12.4843 14.4844 12.4218 13.875 12.3749 13.2812C12.4843 13.375 12.5937 13.3437 12.7187 13.4219C12.2499 12.2031 12.1718 10.8438 12.5312 9.59375C12.7656 9.95312 12.9999 10.3125 13.2187 10.6719C13.3437 10.25 13.4843 9.84375 13.6093 9.42187C13.6874 9.51562 13.7812 9.60937 13.8593 9.70312C14.0156 8.96875 14.1874 8.23437 14.3437 7.5C14.5937 8.46875 15.2968 9.3125 16.2187 9.70312C16.2187 9.21875 16.2031 8.75 16.2031 8.26562C16.3906 8.4375 16.5937 8.625 16.7812 8.79687C16.9687 8.01562 17.1406 7.21875 17.3281 6.4375C17.6562 7.09375 17.9687 7.75 18.2968 8.40625C18.4218 8.17187 18.5624 7.92187 18.6874 7.6875C18.8593 7.92187 19.0312 8.14062 19.2031 8.375C19.4062 7.23437 19.6093 6.09375 19.8125 4.9375C20.25 6.09375 20.6875 7.25 21.1093 8.40625C21.2968 8.10937 21.4843 7.8125 21.6875 7.5C21.8906 7.76562 22.1093 8.01562 22.3125 8.28125C22.875 7.57812 23.1718 6.6875 23.1718 5.78125C23.9531 7.125 24.3125 8.71875 24.1875 10.2656C24.3906 10.1094 24.5781 9.9375 24.7812 9.78125C24.8125 10.0156 24.8593 10.25 24.8906 10.4844C25.3906 10.1094 25.7187 9.53125 25.7656 8.90625C25.875 9.8125 25.9687 10.7344 26.0781 11.6406C27.0312 11.0937 27.4687 9.8125 27.0468 8.8125C27.5937 9.875 27.5468 11.2344 26.9062 12.25C27.0937 12.1719 27.2656 12.1094 27.4531 12.0312C27.4062 12.4375 27.3593 12.8281 27.3125 13.2344C27.5 13.2344 27.6875 13.2344 27.875 13.2344C27.4843 13.8281 27.1093 14.4062 26.7187 15V15.0156C26.7187 15.0312 26.7343 15.0625 26.7343 15.0781C27.1093 15.0781 27.4843 15.0781 27.8593 15.0781C27.625 15.3906 27.4062 15.7187 27.1718 16.0312C27.2812 16.0312 27.375 16.0312 27.4843 16.0312C27.1718 16.1406 27.0468 16.5 27.0937 16.8281C27.9218 16.875 29.7187 15.1094 29.1718 12.3437C29.0781 12.9219 28.8437 12.9219 28.6875 13.1719C28.875 12.6719 29.3125 11.4844 29.1406 10.2188C28.9687 8.82812 28.5468 8.14062 28.0468 7.78125C28.125 8.07812 28.125 8.40625 28.0781 8.70312C27.7812 7.6875 27.2656 6.35937 26.6562 5.82812C26.8125 6.34375 26.3437 6.57812 26.4375 6.95312C24.7968 4.79687 22.7812 3.54687 21.3437 2.82812C22.1406 3.96875 22.1562 4.60937 22.2812 5.09375C21.6875 3.95312 19.4843 2.03125 18.2031 1.96875C18.5624 2.28125 18.9687 3.32812 18.7968 4.09375C18.3593 3.5 17.3593 3.25 16.8281 3.3125C17.1874 3.54687 17.2031 4.34375 16.4687 4.90625C16.1718 5.14062 15.6093 5.54687 15.2656 6.34375C15.1406 6.20312 14.8437 5.9375 14.9687 5.45312C13.7656 5.79687 12.8437 7.45312 12.7656 8.51562C12.5468 8.3125 12.4062 8.01562 12.3906 7.71875C11.9531 8.46875 11.5781 8.5 11.3281 10.25C11.0781 12.0625 11.5624 13.3281 11.5937 13.6875C11.3124 13.5156 11.0624 13.25 10.9531 12.9375C10.7343 15.5937 12.4687 16.4844 12.9062 16.7187C12.7656 16.0625 12.4999 15.4219 12.1093 14.8594C12.2812 14.9687 12.4062 15.0156 12.5312 15.0781Z" fill="#D9C3A7"/>
<path d="M26.7344 15.0312L26.7188 15L26.7344 15.0312Z" fill="#D9C3A7"/>
<path d="M26.75 15.0938C26.75 15.0625 26.7344 15.0469 26.7344 15.0312C26.7344 15.0469 26.7344 15.0781 26.75 15.0938Z" fill="#D9C3A7"/>
<path d="M26.6719 15.0938C26.7031 15.0938 26.7188 15.0938 26.75 15.0938C26.75 15.0781 26.7344 15.0469 26.7344 15.0312V15.0156C26.7031 15.0312 26.6875 15.0625 26.6719 15.0938Z" fill="#D9C3A7"/>
<path d="M27.5 16.0469C27.3906 16.0469 27.2969 16.0469 27.1875 16.0469C27.4219 15.7344 27.6406 15.4062 27.875 15.0938C27.5 15.0938 27.125 15.0938 26.75 15.0938C26.7656 15.1562 26.7656 15.2187 26.7812 15.2656C26.7812 15.2969 26.7969 15.3438 26.7969 15.375C26.8125 15.4531 26.8281 15.5469 26.8281 15.625C26.8281 15.6719 26.8438 15.7031 26.8438 15.75C26.8594 15.8281 26.8594 15.9219 26.875 16C26.875 16.0469 26.8906 16.0781 26.8906 16.125C26.9063 16.2187 26.9063 16.2969 26.9219 16.3906C26.9219 16.4219 26.9219 16.4687 26.9375 16.5C26.9375 16.5937 26.9531 16.6875 26.9531 16.7812V16.7969C27.0156 16.8125 27.0625 16.8281 27.1094 16.8438H27.125C27.0781 16.5156 27.2031 16.1562 27.5 16.0469Z" fill="#9C8276"/>
<path d="M20 9.67188C20.0312 9.67188 20.0625 9.67188 20.0781 9.67188C20.2187 9.67188 20.3438 9.67188 20.4844 9.6875C20.5469 9.6875 20.6094 9.6875 20.6719 9.70312C20.7656 9.70312 20.8594 9.71875 20.9531 9.71875C21.0156 9.71875 21.0781 9.73438 21.1562 9.73438C21.2344 9.75 21.3281 9.75 21.4062 9.76562C21.4688 9.78125 21.5312 9.78125 21.6094 9.79688C21.6875 9.8125 21.7656 9.82812 21.8438 9.82812C21.9062 9.84375 21.9688 9.85937 22.0312 9.85937C22.1094 9.875 22.1719 9.89062 22.25 9.90625C22.3125 9.92188 22.375 9.9375 22.4375 9.95312C22.5 9.96875 22.5781 9.98437 22.6406 10.0156C22.7031 10.0312 22.7656 10.0469 22.8125 10.0781C22.875 10.0938 22.9375 10.125 23 10.1406C23.0625 10.1562 23.1094 10.1875 23.1719 10.2031C23.2344 10.2344 23.2969 10.25 23.3437 10.2813C23.3906 10.2969 23.4531 10.3281 23.5 10.3437C23.5625 10.375 23.6094 10.4062 23.6719 10.4219C23.7187 10.4531 23.7656 10.4687 23.8281 10.5C23.8906 10.5312 23.9375 10.5625 23.9844 10.5938C24.0312 10.625 24.0781 10.6406 24.125 10.6719C24.1875 10.7031 24.2344 10.75 24.2812 10.7812C24.3281 10.8125 24.3594 10.8281 24.4062 10.8594C24.5 10.9219 24.5781 10.9844 24.6562 11.0625C24.6875 11.0938 24.7344 11.125 24.7656 11.1562C24.8125 11.2031 24.8594 11.2344 24.9062 11.2812C24.9375 11.3125 24.9844 11.3594 25.0156 11.3906C25.0625 11.4375 25.0937 11.4687 25.1406 11.5156C25.1719 11.5625 25.2188 11.5938 25.25 11.6406C25.2812 11.6875 25.3281 11.7188 25.3594 11.7656C25.3906 11.8125 25.4219 11.8594 25.4687 11.8906C25.5 11.9375 25.5312 11.9688 25.5625 12.0156C25.5938 12.0625 25.625 12.1094 25.6562 12.1563C25.6875 12.2031 25.7188 12.25 25.75 12.2812C25.7812 12.3281 25.8125 12.375 25.8437 12.4219C25.875 12.4688 25.8906 12.5156 25.9219 12.5625C25.9531 12.6094 25.9844 12.6719 26 12.7188C26.0312 12.7656 26.0469 12.8125 26.0781 12.8594C26.1094 12.9063 26.125 12.9688 26.1562 13.0156C26.1719 13.0625 26.2031 13.1094 26.2188 13.1562C26.25 13.2187 26.2656 13.2656 26.2969 13.3281C26.3125 13.375 26.3281 13.4219 26.3594 13.4687C26.375 13.5312 26.4062 13.5938 26.4219 13.6562C26.4375 13.7031 26.4531 13.75 26.4687 13.7969C26.4844 13.8594 26.5156 13.9219 26.5312 14C26.5469 14.0312 26.5469 14.0625 26.5625 14.0937C26.6406 14.3594 26.7188 14.6406 26.7656 14.9375C26.7656 14.9688 26.7812 14.9844 26.7812 15.0156C27.1719 14.4219 27.5469 13.8438 27.9375 13.25C27.75 13.25 27.5625 13.25 27.375 13.25C27.4219 12.8438 27.4688 12.4531 27.5156 12.0469C27.3281 12.125 27.1406 12.1875 26.9688 12.2656C27.6094 11.25 27.6562 9.89062 27.1094 8.82812C27.5312 9.82812 27.0937 11.125 26.1406 11.6562C26.0312 10.75 25.9375 9.82812 25.8281 8.92187C25.7812 9.54687 25.4531 10.125 24.9531 10.5C24.9219 10.2656 24.875 10.0312 24.8437 9.79688C24.6406 9.95312 24.4531 10.125 24.25 10.2813C24.375 8.73438 24.0156 7.14062 23.2344 5.79687C23.2344 6.6875 22.9219 7.59375 22.375 8.29687C22.1719 8.03125 21.9531 7.78125 21.75 7.51562C21.5625 7.8125 21.375 8.10938 21.1719 8.42188C20.7344 7.26562 20.2969 6.10938 19.875 4.95312C19.6719 6.09375 19.4688 7.23438 19.2656 8.39062C19.0938 8.15625 18.9219 7.9375 18.75 7.70312C18.625 7.9375 18.4844 8.1875 18.3594 8.42188C18.0469 7.76563 17.7188 7.10937 17.3906 6.45312C17.2031 7.23437 17.0313 8.03125 16.8438 8.8125C16.6563 8.64062 16.4531 8.45312 16.2656 8.28125C16.2656 8.76562 16.2812 9.23438 16.2812 9.71875C15.3594 9.32812 14.6406 8.48437 14.4062 7.51562C14.25 8.25 14.0781 8.98438 13.9219 9.71875C13.8281 9.625 13.75 9.53125 13.6719 9.4375C13.5469 9.85938 13.4063 10.2656 13.2813 10.6875C13.0469 10.3281 12.8281 9.96875 12.5938 9.60938C12.25 10.8594 12.3125 12.2344 12.7813 13.4375C12.6719 13.3438 12.5625 13.375 12.4375 13.2969C12.4844 13.8906 12.5313 14.5 12.5938 15.0937C12.4688 15.0312 12.3437 14.9844 12.2188 14.9219C12.6094 15.4844 12.875 16.1094 13.0156 16.7812C13.0625 16.7969 13.0781 16.8281 13.0938 16.8281H13.125C13.2969 12.7812 14.9219 9.67188 20 9.67188Z" fill="#9C8276"/>
<path d="M23.1406 10.2031C23.2031 10.2344 23.2656 10.25 23.3125 10.2812C23.25 10.25 23.2031 10.2344 23.1406 10.2031Z" fill="#9C8276"/>
<path d="M25.9531 12.7344C25.9844 12.7812 26 12.8281 26.0312 12.875C26.0156 12.8281 25.9844 12.7812 25.9531 12.7344Z" fill="#9C8276"/>
<path d="M25.625 12.1719C25.6562 12.2188 25.6875 12.2656 25.7188 12.2969C25.6719 12.2656 25.6406 12.2188 25.625 12.1719Z" fill="#9C8276"/>
<path d="M25.7969 12.4531C25.8281 12.5 25.8438 12.5469 25.875 12.5938C25.8438 12.5469 25.8281 12.5 25.7969 12.4531Z" fill="#9C8276"/>
<path d="M22.4062 9.96875C22.4687 9.98438 22.5469 10 22.6094 10.0313C22.5313 10 22.4687 9.98438 22.4062 9.96875Z" fill="#9C8276"/>
<path d="M26.375 13.6719C26.3906 13.7187 26.4063 13.7656 26.4219 13.8125C26.3906 13.7656 26.3906 13.7187 26.375 13.6719Z" fill="#9C8276"/>
<path d="M26.25 13.3594C26.2656 13.4062 26.2812 13.4531 26.3125 13.5C26.2812 13.4531 26.2656 13.4062 26.25 13.3594Z" fill="#9C8276"/>
<path d="M26.1094 13.0469C26.125 13.0937 26.1562 13.1406 26.1719 13.1875C26.1562 13.1406 26.125 13.0937 26.1094 13.0469Z" fill="#9C8276"/>
<path d="M22.7812 10.0781C22.8438 10.0937 22.9062 10.125 22.9688 10.1406C22.9062 10.125 22.8438 10.0937 22.7812 10.0781Z" fill="#9C8276"/>
<path d="M25.4219 11.9062C25.4531 11.9531 25.4844 11.9844 25.5156 12.0312C25.4844 11.9844 25.4531 11.9531 25.4219 11.9062Z" fill="#9C8276"/>
<path d="M24.0938 10.6875C24.1562 10.7188 24.2031 10.7656 24.25 10.7969C24.2031 10.75 24.1406 10.7188 24.0938 10.6875Z" fill="#9C8276"/>
<path d="M24.7344 11.1719C24.7813 11.2187 24.8281 11.25 24.875 11.2969C24.8281 11.25 24.7813 11.2187 24.7344 11.1719Z" fill="#9C8276"/>
<path d="M23.4688 10.3438C23.5312 10.375 23.5781 10.4062 23.6406 10.4219C23.5781 10.4062 23.5312 10.375 23.4688 10.3438Z" fill="#9C8276"/>
<path d="M24.375 10.875C24.4687 10.9375 24.5469 11 24.625 11.0781C24.5469 11 24.4531 10.9375 24.375 10.875Z" fill="#9C8276"/>
<path d="M24.9844 11.4062C25.0312 11.4531 25.0625 11.4844 25.1094 11.5312C25.0625 11.4844 25.0312 11.4531 24.9844 11.4062Z" fill="#9C8276"/>
<path d="M23.7969 10.5156C23.8594 10.5469 23.9062 10.5781 23.9531 10.6094C23.9062 10.5781 23.8438 10.5313 23.7969 10.5156Z" fill="#9C8276"/>
<path d="M26.4844 14C26.5 14.0313 26.5 14.0625 26.5156 14.0938C26.5 14.0625 26.4844 14.0313 26.4844 14Z" fill="#9C8276"/>
<path d="M25.2188 11.6562C25.25 11.7031 25.2969 11.7344 25.3281 11.7812C25.2813 11.7344 25.25 11.6875 25.2188 11.6562Z" fill="#9C8276"/>
<path d="M22.0156 9.875C22.0937 9.89063 22.1563 9.90625 22.2344 9.92188C22.1563 9.90625 22.0781 9.89063 22.0156 9.875Z" fill="#9C8276"/>
<path d="M20.6719 9.70312C20.7656 9.70312 20.8594 9.71875 20.9531 9.71875C20.8594 9.70313 20.7656 9.70312 20.6719 9.70312Z" fill="#9C8276"/>
<path d="M21.1406 9.73438C21.2188 9.75 21.3125 9.75 21.3906 9.76562C21.3125 9.75 21.2344 9.75 21.1406 9.73438Z" fill="#9C8276"/>
<path d="M26.9062 16.3906C26.9062 16.4219 26.9063 16.4687 26.9219 16.5C26.9219 16.4687 26.9219 16.4375 26.9062 16.3906Z" fill="#9C8276"/>
<path d="M26.7188 15C26.7188 14.9688 26.7031 14.9531 26.7031 14.9219C26.7187 14.9531 26.7188 14.9844 26.7188 15Z" fill="#9C8276"/>
<path d="M13.0625 16.8125C13.2031 16.7812 13.3594 16.7656 13.5156 16.7656C13.7031 16.7656 13.875 16.8125 14.0313 16.9062C14.0156 16.7812 14.0156 16.6563 14 16.5313C13.9063 15.4219 14.4219 14.375 15.0938 13.4844C15.7656 12.5938 16.75 11.9375 17.8281 11.6406C18.2031 11.5312 18.6094 11.4844 19 11.5625C19.3906 11.6406 19.7656 11.8594 19.9375 12.2031C19.9531 12.1875 19.9844 12.1719 20 12.1563V9.67188C14.9219 9.67188 13.2969 12.7812 13.0625 16.8125Z" fill="#9C8276"/>
<path d="M21.5938 9.79688C21.6719 9.8125 21.75 9.82812 21.8281 9.82812C21.75 9.8125 21.6719 9.8125 21.5938 9.79688Z" fill="#9C8276"/>
<path d="M13.7969 21.75C13.9688 21.9687 14.2344 22.125 14.5 22.0469C14.4844 21.8125 14.4531 21.5781 14.4375 21.3594C14.2344 21.5469 14.0312 21.6875 13.7969 21.75Z" fill="#9C8276"/>
<path d="M20.0781 9.67188C20.2187 9.67188 20.3438 9.67187 20.4844 9.6875C20.3594 9.6875 20.2187 9.6875 20.0781 9.67188Z" fill="#9C8276"/>
<path d="M26.7812 15.2812C26.7812 15.3125 26.7969 15.3594 26.7969 15.3906C26.7813 15.3594 26.7812 15.3125 26.7812 15.2812Z" fill="#9C8276"/>
<path d="M26.875 16.0156C26.875 16.0625 26.8906 16.0938 26.8906 16.1406C26.8906 16.0938 26.875 16.0469 26.875 16.0156Z" fill="#9C8276"/>
<path d="M26.8281 15.6406C26.8281 15.6875 26.8438 15.7188 26.8438 15.7656C26.8438 15.7188 26.8281 15.6719 26.8281 15.6406Z" fill="#9C8276"/>
<path d="M23.9531 10.6094C24 10.6406 24.0469 10.6562 24.0938 10.6875C24.0469 10.6562 24 10.625 23.9531 10.6094Z" fill="#9C8276"/>
<path d="M20.4844 9.6875C20.5469 9.6875 20.6094 9.6875 20.6719 9.70312C20.6094 9.6875 20.5469 9.6875 20.4844 9.6875Z" fill="#9C8276"/>
<path d="M24.25 10.7969C24.2969 10.8281 24.3281 10.8438 24.375 10.875C24.3281 10.8438 24.2969 10.8125 24.25 10.7969Z" fill="#9C8276"/>
<path d="M22.2188 9.92188C22.2813 9.9375 22.3437 9.95312 22.4062 9.96875C22.3437 9.95312 22.2813 9.9375 22.2188 9.92188Z" fill="#9C8276"/>
<path d="M23.6406 10.4375C23.6875 10.4688 23.7344 10.4844 23.7969 10.5156C23.7344 10.4844 23.6875 10.4531 23.6406 10.4375Z" fill="#9C8276"/>
<path d="M22.9688 10.1406C23.0312 10.1562 23.0781 10.1875 23.1406 10.2031C23.0781 10.1875 23.0312 10.1562 22.9688 10.1406Z" fill="#9C8276"/>
<path d="M21.3906 9.76562C21.4531 9.78125 21.5156 9.78125 21.5937 9.79688C21.5313 9.78125 21.4531 9.78125 21.3906 9.76562Z" fill="#9C8276"/>
<path d="M23.3125 10.2812C23.3594 10.2969 23.4219 10.3281 23.4688 10.3438C23.4219 10.3281 23.375 10.2969 23.3125 10.2812Z" fill="#9C8276"/>
<path d="M20.9531 9.71875C21.0156 9.71875 21.0781 9.73438 21.1562 9.73438C21.0781 9.73438 21.0156 9.71875 20.9531 9.71875Z" fill="#9C8276"/>
<path d="M21.8125 9.82812C21.875 9.84375 21.9375 9.85938 22 9.85938C21.9375 9.85938 21.875 9.84375 21.8125 9.82812Z" fill="#9C8276"/>
<path d="M22.6094 10.0156C22.6719 10.0312 22.7344 10.0469 22.7812 10.0781C22.7188 10.0625 22.6562 10.0312 22.6094 10.0156Z" fill="#9C8276"/>
<path d="M26.8438 15.7656C26.8594 15.8438 26.8594 15.9375 26.875 16.0156C26.8594 15.9219 26.8594 15.8438 26.8438 15.7656Z" fill="#9C8276"/>
<path d="M26.7969 15.3906C26.8125 15.4688 26.8281 15.5625 26.8281 15.6406C26.8125 15.5625 26.8125 15.4688 26.7969 15.3906Z" fill="#9C8276"/>
<path d="M26.5 14.0938C26.5781 14.3594 26.6562 14.6406 26.7031 14.9375C26.6562 14.6406 26.5781 14.3594 26.5 14.0938Z" fill="#9C8276"/>
<path d="M26.2969 13.5C26.3125 13.5625 26.3437 13.625 26.3594 13.6875C26.3437 13.6094 26.3281 13.5625 26.2969 13.5Z" fill="#9C8276"/>
<path d="M26.4062 13.8125C26.4219 13.875 26.4531 13.9375 26.4688 14.0156C26.4531 13.9375 26.4375 13.875 26.4062 13.8125Z" fill="#9C8276"/>
<path d="M26.7812 15.2812C26.7656 15.2188 26.7656 15.1562 26.75 15.1094C26.75 15.1562 26.7656 15.2188 26.7812 15.2812Z" fill="#9C8276"/>
<path d="M26.9219 16.5156C26.9219 16.6094 26.9375 16.7031 26.9375 16.7969C26.9375 16.7031 26.9219 16.6094 26.9219 16.5156Z" fill="#9C8276"/>
<path d="M26.8906 16.1406C26.9063 16.2344 26.9062 16.3125 26.9219 16.4062C26.9062 16.3125 26.8906 16.2188 26.8906 16.1406Z" fill="#9C8276"/>
<path d="M25.1094 11.5312C25.1406 11.5781 25.1875 11.6094 25.2188 11.6562C25.1719 11.6094 25.1406 11.5625 25.1094 11.5312Z" fill="#9C8276"/>
<path d="M25.5156 12.0312C25.5469 12.0781 25.5781 12.125 25.6094 12.1719C25.5937 12.125 25.5469 12.0781 25.5156 12.0312Z" fill="#9C8276"/>
<path d="M25.3281 11.7812C25.3594 11.8281 25.3906 11.875 25.4375 11.9062C25.3906 11.8594 25.3594 11.8125 25.3281 11.7812Z" fill="#9C8276"/>
<path d="M24.625 11.0781C24.6563 11.1094 24.7031 11.1406 24.7344 11.1719C24.7031 11.1406 24.6719 11.1094 24.625 11.0781Z" fill="#9C8276"/>
<path d="M24.875 11.2969C24.9063 11.3281 24.9531 11.375 24.9844 11.4062C24.9531 11.375 24.9219 11.3281 24.875 11.2969Z" fill="#9C8276"/>
<path d="M25.875 12.5938C25.9062 12.6406 25.9375 12.7031 25.9531 12.75C25.9375 12.6875 25.9062 12.6406 25.875 12.5938Z" fill="#9C8276"/>
<path d="M25.7031 12.2969C25.7344 12.3437 25.7656 12.3906 25.7969 12.4375C25.7656 12.4063 25.7344 12.3594 25.7031 12.2969Z" fill="#9C8276"/>
<path d="M26.0312 12.875C26.0625 12.9219 26.0781 12.9844 26.1094 13.0312C26.0781 12.9844 26.0625 12.9375 26.0312 12.875Z" fill="#9C8276"/>
<path d="M26.1719 13.1875C26.2031 13.25 26.2188 13.2969 26.25 13.3594C26.2188 13.2969 26.2031 13.2344 26.1719 13.1875Z" fill="#9C8276"/>
<path d="M23.4063 11.9375C24.2188 12.3281 24.8281 13.0625 25.2187 13.875C25.6094 14.6875 25.7813 15.5781 25.875 16.4844C25.8906 16.625 25.9063 16.7813 25.9063 16.9219C26.0938 16.8125 26.2969 16.75 26.5 16.75C26.6563 16.75 26.8125 16.7656 26.9531 16.7969V16.7813C26.9531 16.6875 26.9375 16.5938 26.9375 16.5C26.9375 16.4688 26.9375 16.4219 26.9219 16.3906C26.9219 16.2969 26.9063 16.2188 26.8906 16.125C26.8906 16.0781 26.875 16.0469 26.875 16C26.8594 15.9219 26.8594 15.8281 26.8438 15.75C26.8438 15.7031 26.8281 15.6719 26.8281 15.625C26.8125 15.5469 26.8125 15.4531 26.7969 15.375C26.7969 15.3438 26.7812 15.2969 26.7812 15.2656C26.7656 15.2031 26.7656 15.1406 26.75 15.0938C26.7187 15.0938 26.7031 15.0938 26.6719 15.0938C26.6875 15.0625 26.7188 15.0313 26.7344 15C26.7344 14.9688 26.7188 14.9531 26.7188 14.9219C26.6562 14.6406 26.5937 14.3594 26.5156 14.0781C26.5 14.0469 26.5 14.0156 26.4844 13.9844C26.4688 13.9219 26.4375 13.8594 26.4219 13.7813C26.4063 13.7344 26.3906 13.6875 26.375 13.6406C26.3594 13.5781 26.3281 13.5156 26.3125 13.4531C26.2969 13.4063 26.2812 13.3594 26.25 13.3125C26.2344 13.25 26.2031 13.2031 26.1719 13.1406C26.1562 13.0938 26.125 13.0469 26.1094 13C26.0781 12.9531 26.0625 12.8906 26.0313 12.8438C26.0156 12.7969 25.9844 12.75 25.9531 12.7031C25.9219 12.6563 25.8906 12.5938 25.875 12.5469C25.8438 12.5 25.8281 12.4531 25.7969 12.4063C25.7656 12.3594 25.7344 12.3125 25.7031 12.2656C25.6719 12.2188 25.6406 12.1719 25.6094 12.1406C25.5781 12.0938 25.5469 12.0469 25.5156 12C25.4844 11.9531 25.4531 11.9219 25.4219 11.875C25.3906 11.8281 25.3594 11.7812 25.3125 11.75C25.2812 11.7031 25.2344 11.6719 25.2031 11.625C25.1719 11.5781 25.125 11.5469 25.0938 11.5C25.0625 11.4531 25.0156 11.4219 24.9688 11.375C24.9375 11.3438 24.8906 11.2969 24.8594 11.2656C24.8125 11.2188 24.7656 11.1875 24.7187 11.1406C24.6875 11.1094 24.6406 11.0781 24.6094 11.0469C24.5312 10.9844 24.4375 10.9063 24.3594 10.8438C24.3125 10.8125 24.2813 10.7813 24.2344 10.7656C24.1875 10.7344 24.125 10.6875 24.0781 10.6562C24.0313 10.625 23.9844 10.6094 23.9375 10.5781C23.8906 10.5469 23.8281 10.5156 23.7812 10.4844C23.7344 10.4531 23.6875 10.4375 23.625 10.4062C23.5625 10.375 23.5156 10.3438 23.4531 10.3281C23.4063 10.2969 23.3438 10.2812 23.2969 10.2656C23.2344 10.2344 23.1719 10.2187 23.125 10.1875C23.0625 10.1719 23.0156 10.1406 22.9531 10.125C22.8906 10.1094 22.8281 10.0781 22.7656 10.0625C22.7031 10.0469 22.6563 10.0313 22.5938 10C22.5313 9.98438 22.4688 9.96875 22.3906 9.9375C22.3281 9.92187 22.2656 9.90625 22.2031 9.89063C22.1406 9.875 22.0625 9.85938 21.9844 9.84375C21.9219 9.82813 21.8594 9.8125 21.7969 9.8125C21.7188 9.79688 21.6406 9.78125 21.5625 9.78125C21.5 9.76562 21.4375 9.76563 21.3594 9.75C21.2812 9.73438 21.2031 9.73438 21.1094 9.71875C21.0469 9.71875 20.9844 9.70312 20.9063 9.70312C20.8125 9.6875 20.7188 9.6875 20.625 9.6875C20.5625 9.6875 20.5 9.67188 20.4375 9.67188C20.3125 9.67188 20.1719 9.67188 20.0312 9.65625C20 9.65625 19.9687 9.65625 19.9531 9.65625V12.125C20.9531 11.4844 22.3594 11.4375 23.4063 11.9375Z" fill="#9C8276"/>
<path d="M25.4063 21.1562C25.3125 21.4687 25.2031 21.7656 25.0938 22.0625C25.2188 22.2187 25.4844 22.3281 25.6719 22.2969C25.8594 22.2656 26.0469 22.1406 26.125 21.9531C26.1562 21.8906 26.1875 21.8281 26.2031 21.75C25.9062 21.6719 25.625 21.4531 25.4063 21.1562Z" fill="#9C8276"/>
<path d="M13.0312 16.8281C13.0312 16.8437 13.0469 16.8594 13.0469 16.875C13.0469 16.8438 13.0469 16.8281 13.0469 16.7969L13.0312 16.8281Z" fill="#9C8276"/>
<path d="M13.0625 16.8125C13.0625 16.8438 13.0625 16.8594 13.0625 16.8906C13.3906 18.125 13.5781 19.4062 13.5781 20.6875C13.5781 21.0156 13.5781 21.3437 13.7188 21.6406C13.7344 21.6875 13.7656 21.7344 13.7969 21.7656C14.0313 21.7031 14.25 21.5625 14.4375 21.3594C14.2969 19.875 14.1719 18.375 14.0313 16.8906C13.8594 16.8125 13.6875 16.75 13.5156 16.75C13.3438 16.75 13.2031 16.7656 13.0625 16.8125Z" fill="#9C8276"/>
<path d="M26.9375 16.8281C26.9375 16.8437 26.9375 16.8594 26.9375 16.875C26.9375 17 26.9531 17.125 26.9531 17.2344C26.9531 17.2969 26.9531 17.3594 26.9531 17.4219C26.9531 17.5313 26.9531 17.6563 26.9531 17.7813C26.9531 17.8125 26.9531 17.8594 26.9531 17.8906C26.9531 18.6406 26.8594 19.4375 26.7031 20.2188C26.9844 19.125 27.0937 18.0313 27 16.8438C27.0313 16.8438 27.0469 16.8594 27.0781 16.8594C27.0313 16.8438 26.9688 16.8281 26.9219 16.8125L26.9375 16.8281Z" fill="#9C8276"/>
<path d="M26.9531 16.875C26.9531 16.8594 26.9531 16.8437 26.9531 16.8281V16.7969C26.9375 16.8281 26.9375 16.8594 26.9531 16.875Z" fill="#9C8276"/>
<path d="M26.7188 20.2344C26.875 19.4375 26.9688 18.6562 26.9688 17.9062C26.9688 17.875 26.9688 17.8281 26.9688 17.7969C26.9688 17.8281 26.9688 17.875 26.9688 17.9062C26.9688 18.6562 26.8906 19.4375 26.7188 20.2344Z" fill="#9C8276"/>
<path d="M26.9531 16.875C26.9531 17 26.9688 17.125 26.9688 17.2344C26.9531 17.125 26.9531 17 26.9531 16.875Z" fill="#9C8276"/>
<path d="M26.5 16.75C26.2969 16.75 26.0938 16.8125 25.9063 16.9219C26 18.3281 25.8281 19.7969 25.4219 21.1562C25.6406 21.4531 25.9219 21.6719 26.2188 21.75C26.4219 21.2344 26.5938 20.7344 26.7344 20.2344C26.8906 19.4531 26.9844 18.6563 26.9844 17.9063C26.9844 17.875 26.9844 17.8281 26.9844 17.7969C26.9844 17.6719 26.9844 17.5625 26.9844 17.4375C26.9844 17.375 26.9844 17.3125 26.9844 17.25C26.9844 17.125 26.9688 17 26.9688 16.8906C26.9688 16.8594 26.9688 16.8438 26.9688 16.8125C26.7969 16.7656 26.6563 16.75 26.5 16.75Z" fill="#9C8276"/>
</svg>
